# xmcd
#
# Track frame offsets: 
#        150
#        6154
#        14687
#        30360
#        46305
#        47908
#        65733
#        76616
#        97791
#        115181
#        128258
#        131409
#        147845
#        149482
#        161069
#        184994
#        196834
#        213848
#        235227
#        253620
#        272004
#        290534
#        312674
#        329414
#
# Disc length: 4540 seconds
#
# Revision: 0
# Processed by: cddbd v1.5.2PL0 Copyright (c) Steve Scherf et al.
# Submitted via: ExactAudioCopy v0.99pb5
#
DISCID=5611ba18
DTITLE=Huge L - Puuton lehti mixtape
DYEAR=2011
DGENRE=Hip-Hop
TTITLE0=Jäin
TTITLE1=Don kudon
TTITLE2=Prodhuger
TTITLE3=Mania (remix)
TTITLE4=Pätkätyö (skit)
TTITLE5=Paperi rahaa
TTITLE6=Arkinen
TTITLE7=Maailman vauhis
TTITLE8=Kolmekymmentä
TTITLE9=Ihan mit vaan
TTITLE10=ILS (skit)
TTITLE11=Letkeenpää
TTITLE12=(skit)
TTITLE13=Suojatiellä (kelopuu alkp.)
TTITLE14=Narsissi
TTITLE15=Pullopostia perheelle
TTITLE16=Tulen loistos
TTITLE17=Sä (remix)
TTITLE18=Autotune (alkp.)
TTITLE19=Qhan vittuilin part.2 (alkp.)
TTITLE20=Vaatekappale (alkp.)
TTITLE21=Pukeudun, puhun, nukun ja tapaan sut
TTITLE22=Egolooginen (alkp.)
TTITLE23=Mustavalko (kelopuu alkp.)
EXTD=
EXTT0=
EXTT1=
EXTT2=
EXTT3=
EXTT4=
EXTT5=
EXTT6=
EXTT7=
EXTT8=
EXTT9=
EXTT10=
EXTT11=
EXTT12=
EXTT13=
EXTT14=
EXTT15=
EXTT16=
EXTT17=
EXTT18=
EXTT19=
EXTT20=
EXTT21=
EXTT22=
EXTT23=
PLAYORDER=
